<svg id="visual" viewBox="0 0 1920 1080" width="1920" height="1080" xmlns="http://www.w3.org/2000/svg" xmlns:xlink="http://www.w3.org/1999/xlink" version="1.1"><rect x="0" y="0" width="1920" height="1080" fill="#001122"></rect><path d="M0 685L32 679C64 673 128 661 192 651.8C256 642.7 320 636.3 384 679C448 721.7 512 813.3 576 815C640 816.7 704 728.3 768 692.7C832 657 896 674 960 713.3C1024 752.7 1088 814.3 1152 803C1216 791.7 1280 707.3 1344 688.2C1408 669 1472 715 1536 752.7C1600 790.3 1664 819.7 1728 817.2C1792 814.7 1856 780.3 1888 763.2L1920 746L1920 1081L1888 1081C1856 1081 1792 1081 1728 1081C1664 1081 1600 1081 1536 1081C1472 1081 1408 1081 1344 1081C1280 1081 1216 1081 1152 1081C1088 1081 1024 1081 960 1081C896 1081 832 1081 768 1081C704 1081 640 1081 576 1081C512 1081 448 1081 384 1081C320 1081 256 1081 192 1081C128 1081 64 1081 32 1081L0 1081Z" fill="#0066ff"></path><path d="M0 878L32 856.2C64 834.3 128 790.7 192 797.5C256 804.3 320 861.7 384 855.7C448 849.7 512 780.3 576 751.3C640 722.3 704 733.7 768 754.3C832 775 896 805 960 805.3C1024 805.7 1088 776.3 1152 787.3C1216 798.3 1280 849.7 1344 859.5C1408 869.3 1472 837.7 1536 836.8C1600 836 1664 866 1728 886.5C1792 907 1856 918 1888 923.5L1920 929L1920 1081L1888 1081C1856 1081 1792 1081 1728 1081C1664 1081 1600 1081 1536 1081C1472 1081 1408 1081 1344 1081C1280 1081 1216 1081 1152 1081C1088 1081 1024 1081 960 1081C896 1081 832 1081 768 1081C704 1081 640 1081 576 1081C512 1081 448 1081 384 1081C320 1081 256 1081 192 1081C128 1081 64 1081 32 1081L0 1081Z" fill="#007aff"></path><path d="M0 903L32 900.3C64 897.7 128 892.3 192 900.5C256 908.7 320 930.3 384 919C448 907.7 512 863.3 576 858.2C640 853 704 887 768 886.8C832 886.7 896 852.3 960 851.7C1024 851 1088 884 1152 888C1216 892 1280 867 1344 876.3C1408 885.7 1472 929.3 1536 918C1600 906.7 1664 840.3 1728 814.3C1792 788.3 1856 802.7 1888 809.8L1920 817L1920 1081L1888 1081C1856 1081 1792 1081 1728 1081C1664 1081 1600 1081 1536 1081C1472 1081 1408 1081 1344 1081C1280 1081 1216 1081 1152 1081C1088 1081 1024 1081 960 1081C896 1081 832 1081 768 1081C704 1081 640 1081 576 1081C512 1081 448 1081 384 1081C320 1081 256 1081 192 1081C128 1081 64 1081 32 1081L0 1081Z" fill="#008cff"></path><path d="M0 854L32 852C64 850 128 846 192 848.3C256 850.7 320 859.3 384 857.2C448 855 512 842 576 841.2C640 840.3 704 851.7 768 876.2C832 900.7 896 938.3 960 933.8C1024 929.3 1088 882.7 1152 884.5C1216 886.3 1280 936.7 1344 936.8C1408 937 1472 887 1536 863.7C1600 840.3 1664 843.7 1728 842.5C1792 841.3 1856 835.7 1888 832.8L1920 830L1920 1081L1888 1081C1856 1081 1792 1081 1728 1081C1664 1081 1600 1081 1536 1081C1472 1081 1408 1081 1344 1081C1280 1081 1216 1081 1152 1081C1088 1081 1024 1081 960 1081C896 1081 832 1081 768 1081C704 1081 640 1081 576 1081C512 1081 448 1081 384 1081C320 1081 256 1081 192 1081C128 1081 64 1081 32 1081L0 1081Z" fill="#2b9dfc"></path><path d="M0 1032L32 1012.8C64 993.7 128 955.3 192 937.3C256 919.3 320 921.7 384 924.7C448 927.7 512 931.3 576 934C640 936.7 704 938.3 768 940.5C832 942.7 896 945.3 960 941.8C1024 938.3 1088 928.7 1152 923C1216 917.3 1280 915.7 1344 928.3C1408 941 1472 968 1536 987C1600 1006 1664 1017 1728 1020.8C1792 1024.7 1856 1021.3 1888 1019.7L1920 1018L1920 1081L1888 1081C1856 1081 1792 1081 1728 1081C1664 1081 1600 1081 1536 1081C1472 1081 1408 1081 1344 1081C1280 1081 1216 1081 1152 1081C1088 1081 1024 1081 960 1081C896 1081 832 1081 768 1081C704 1081 640 1081 576 1081C512 1081 448 1081 384 1081C320 1081 256 1081 192 1081C128 1081 64 1081 32 1081L0 1081Z" fill="#4facf7"></path></svg>